# xmcd
# 
# Track frame offsets:
#     150
#     18287
#     38335
#     64172
#     84930
#     110840
#     124585
#     154632
#     179307
#     196905
#     221150
#     239935
#     263612
#     281950
# 
# Disc length: 4129
# 
# Revision: 0
# Processed by: cddbd v1.5.2PL0 Copyright (c) Steve Scherf et al.
# Submitted via: fre:ac v1.0.17
# 
DISCID=c4101f0e
DTITLE=Magazine - Rays and Hail: 1978-1981
DYEAR=1987
DGENRE=New Wave
TTITLE0=Shot By Both Sides
TTITLE1=Definitive Gaze
TTITLE2=Motorcade
TTITLE3=The Light Pours Out Of Me
TTITLE4=Feed The Enemy
TTITLE5=Rhythm Of Cruelty
TTITLE6=Back To Nature
TTITLE7=Permafrost
TTITLE8=Because You're Frightened
TTITLE9=You Never Knew Me
TTITLE10=A Song From Under The Floorboards
TTITLE11=I Want To Burn Again
TTITLE12=About The Weather
TTITLE13=Parade
EXTD=A compilation of tracks compiled by Howard Devoto and Declan Coglan
EXTT0=
EXTT1=
EXTT2=
EXTT3=
EXTT4=
EXTT5=
EXTT6=
EXTT7=
EXTT8=
EXTT9=
EXTT10=
EXTT11=
EXTT12=
EXTT13=
PLAYORDER=
